<svg width="48" height="48" viewBox="0 0 48 48" fill="none" xmlns="http://www.w3.org/2000/svg">
<g filter="url(#filter0_d_1_1739)">
<rect x="0.5" y="0.5" width="47" height="47" rx="23.5" stroke="#666666"/>
</g>
<path d="M25.0199 14C26.8199 14 27.1999 14.02 28.1199 14.06C29.1799 14.11 29.9099 14.28 30.5399 14.53C31.1999 14.78 31.7599 15.13 32.3099 15.68C32.8699 16.23 33.2099 16.79 33.4699 17.45C33.7199 18.08 33.8799 18.81 33.9299 19.88C33.9799 20.83 33.9899 21.2 33.9899 23.2V24.8C33.9899 26.8 33.9799 27.17 33.9299 28.12C33.9142 28.9468 33.7587 29.7651 33.4699 30.54C33.2099 31.2 32.8699 31.76 32.3199 32.31C31.7599 32.87 31.1999 33.21 30.5399 33.47C29.9099 33.72 29.1799 33.88 28.1199 33.93C27.1699 33.98 26.7899 33.99 24.7899 33.99H23.1999C21.1999 33.99 20.8299 33.98 19.8699 33.93C19.0431 33.9141 18.2249 33.7586 17.4499 33.47C16.7835 33.2195 16.1796 32.8271 15.6799 32.32C15.1677 31.8186 14.7717 31.211 14.5199 30.54C14.2315 29.765 14.076 28.9468 14.0599 28.12C14.0109 27.0874 13.9909 26.0537 13.9999 25.02V22.97C13.9999 21.17 14.0199 20.79 14.0599 19.87C14.1099 18.81 14.2799 18.08 14.5199 17.45C14.7799 16.79 15.1199 16.23 15.6799 15.68C16.1751 15.1674 16.7803 14.7742 17.4499 14.53C18.2244 14.2382 19.0425 14.0793 19.8699 14.06C20.7899 14.02 21.1699 14 22.9699 14H25.0199ZM25.0399 15.8H22.9499C21.2199 15.8 20.8499 15.82 19.9499 15.86C18.9799 15.9 18.4499 16.06 18.0999 16.2C17.6299 16.38 17.2999 16.6 16.9499 16.95C16.5999 17.3 16.3799 17.63 16.1999 18.1C16.0699 18.45 15.8999 18.98 15.8599 19.96C15.8199 20.86 15.7999 21.22 15.7999 22.96V25.04C15.7999 26.78 15.8199 27.14 15.8599 28.04C15.8999 29.01 16.0599 29.54 16.1999 29.89C16.3799 30.36 16.5999 30.69 16.9499 31.04C17.2999 31.39 17.6299 31.61 18.0999 31.79C18.4499 31.93 18.9799 32.09 19.9599 32.13C20.9299 32.18 21.2799 32.19 23.4399 32.19H24.5499C26.7199 32.19 27.0599 32.18 28.0399 32.13C29.0099 32.09 29.5399 31.93 29.8899 31.79C30.3599 31.61 30.6899 31.39 31.0399 31.04C31.3899 30.69 31.6099 30.36 31.7899 29.89C31.9299 29.54 32.0899 29.01 32.1299 28.04C32.1799 27.06 32.1899 26.72 32.1899 24.55V23.45C32.1899 21.28 32.1799 20.93 32.1299 19.95C32.0899 18.98 31.9299 18.45 31.7899 18.1C31.629 17.6654 31.3727 17.2725 31.0399 16.95C30.7177 16.6169 30.3246 16.3606 29.8899 16.2C29.2968 15.9832 28.6713 15.8682 28.0399 15.86C27.0407 15.8123 26.0403 15.7923 25.0399 15.8ZM23.9999 18.86C25.3618 18.86 26.6679 19.401 27.6309 20.364C28.5939 21.327 29.1349 22.6331 29.1349 23.995C29.1349 25.3569 28.5939 26.663 27.6309 27.626C26.6679 28.589 25.3618 29.13 23.9999 29.13C22.638 29.13 21.3319 28.589 20.3689 27.626C19.4059 26.663 18.8649 25.3569 18.8649 23.995C18.8649 22.6331 19.4059 21.327 20.3689 20.364C21.3319 19.401 22.638 18.86 23.9999 18.86ZM23.9999 20.66C23.1154 20.66 22.2671 21.0114 21.6417 21.6368C21.0163 22.2622 20.6649 23.1105 20.6649 23.995C20.6649 24.8795 21.0163 25.7278 21.6417 26.3532C22.2671 26.9786 23.1154 27.33 23.9999 27.33C24.8844 27.33 25.7327 26.9786 26.3581 26.3532C26.9835 25.7278 27.3349 24.8795 27.3349 23.995C27.3349 23.1105 26.9835 22.2622 26.3581 21.6368C25.7327 21.0114 24.8844 20.66 23.9999 20.66ZM29.3299 17.46C29.6482 17.46 29.9534 17.5864 30.1784 17.8115C30.4035 18.0365 30.5299 18.3417 30.5299 18.66C30.5299 18.9783 30.4035 19.2835 30.1784 19.5085C29.9534 19.7336 29.6482 19.86 29.3299 19.86C29.0116 19.86 28.7064 19.7336 28.4814 19.5085C28.2563 19.2835 28.1299 18.9783 28.1299 18.66C28.1299 18.3417 28.2563 18.0365 28.4814 17.8115C28.7064 17.5864 29.0116 17.46 29.3299 17.46Z" fill="white"/>
<defs>
<filter id="filter0_d_1_1739" x="0" y="0" width="48" height="48" filterUnits="userSpaceOnUse" color-interpolation-filters="sRGB">
<feFlood flood-opacity="0" result="BackgroundImageFix"/>
<feColorMatrix in="SourceAlpha" type="matrix" values="0 0 0 0 0 0 0 0 0 0 0 0 0 0 0 0 0 0 127 0" result="hardAlpha"/>
<feOffset/>
<feColorMatrix type="matrix" values="0 0 0 0 0.4 0 0 0 0 0.4 0 0 0 0 0.4 0 0 0 1 0"/>
<feBlend mode="normal" in2="BackgroundImageFix" result="effect1_dropShadow_1_1739"/>
<feBlend mode="normal" in="SourceGraphic" in2="effect1_dropShadow_1_1739" result="shape"/>
</filter>
</defs>
</svg>
